<svg version="1" xmlns="http://www.w3.org/2000/svg" width="933.333" height="933.333" viewBox="0 0 700.000000 700.000000"><path d="M373.7 120.6c-.1.1-5.4.4-11.7.8-6.3.4-13.3.9-15.5 1.2-14.3 1.8-33.7 4.6-37.5 5.4-2.5.5-5.6 1.2-7 1.4-17.8 2.9-66.4 14.2-75 17.4-1.1.4 8.2.8 20.7.9 27.5.1 50.8.9 62.3 2.4 10.3 1.2 12.6 1.6 21 3.9 2.5.7 5.5 1.4 6.6 1.6 2.5.5 52.8 17 55.9 18.3 1.1.5 8.8 3.4 17 6.4 8.3 3 22.9 8.5 32.7 12.1 9.7 3.6 18.2 6.6 19 6.6.7 0 2 .5 2.8 1.1 3.5 2.4-20.3-2.1-41-7.7-6.9-1.9-23.5-7-36.8-11.5-49.3-16.2-63.9-19.7-89.7-21.4-23.3-1.5-36.9-1.9-65-1.9-37.2-.1-49.2.8-67.5 4.9-1.4.3-3.6.8-5 1.1-12.9 2.5-22.1 9.5-27.4 20.8-3 6.3-8.3 24.3-13.1 44-3.7 15-4.1 16.7-5.1 22-.2 1.6-.7 3.2-.9 3.5-.2.4-.6 2.6-1 5.1-.4 2.5-.8 4.7-1 5.1-.2.3-1.6 6.4-3.1 13.5-1.4 7.1-2.7 13-2.9 13.2-.2.2-1.7.5-3.4.7-6.7.9-11.6 1.7-12.2 2.1-.4.2-2.4.6-4.5 1-9.3 1.5-29.8 10.2-39.4 16.7-25.2 17.3-33.7 46.4-22.8 78.2 11.4 33.4 44.1 69.4 86.8 95.7 27.2 16.7 66.1 35.6 100 48.7 4.7 1.8 9.9 3.9 11.5 4.6 7.1 3.1 52.4 17.7 68 21.9 9.4 2.6 18.4 5.1 20 5.6 5.9 1.8 35.9 8.1 50 10.5 14.5 2.5 16.3 2.8 26.5 4 3 .3 7.1.8 9 1 26.4 3.4 74.4 3.8 98.8 1 18-2.2 19.5-2.4 32.2-4.6 20.6-3.6 53.9-12.4 63.5-16.8 1.1-.5 5.8-2.4 10.5-4.2 22.9-8.8 53.4-26.9 63.1-37.5 11.4-12.4 18.1-30 18.1-47.4.1-20.4-5.4-31.2-25.9-51.1-14.7-14.3-46.4-40.8-62.8-52.5-5.9-4.3-20.2-12.4-21.8-12.4-.2 0 .1 2.6.9 5.7.7 3.2 1.5 7.6 1.8 9.8 1.2 8 1.7 11.1 2.6 15.5.6 2.5 1.2 6.1 1.4 8 .3 2 .7 4.7 1 6 .3 1.4.8 4.1 1.1 6 .2 1.9.7 4.8 1 6.5 2.1 11.5 2.6 14.9 2.6 20.2.2 11.3-5.6 18.1-22.6 26.3-9.3 4.6-27.7 11.2-34.2 12.4-1.5.3-3.8.7-5 1-4.5 1.1-6.1 1.4-16.8 3.2-1.1.1-4.7.7-8 1.3-8.5 1.5-11.3 1.9-17 2.6-12.3 1.4-20.9 2.5-23.6 3-.8.2-5.5.6-10.5 1-4.9.4-10 .8-11.4 1-2.2.3-13.7 1.2-25.5 2.1-2.2.1-11 .5-19.5.9s-17.7.8-20.5 1c-7.9.6-74.2.6-83 .1-4.4-.3-12.9-.8-19-1.1-6-.3-13-.8-15.5-1-8.2-.6-18.5-1.6-21.5-2-1.6-.2-7-.9-12-1.5-42-5.3-77.5-16.8-103.3-33.6-11.2-7.3-25.6-21.8-29.7-29.9-4.5-9.1-4.8-12.7-2.3-26.9 1-5.6 2.1-11.7 2.4-13.6.3-1.9.7-4.2.9-5 .2-.8.7-2.9 1-4.5.3-1.7 1.1-5.7 1.8-9 .8-3.3 3.1-14 5.2-23.8 2.2-9.7 4.3-17.7 4.7-17.7.4 0 .8.5.8 1 0 4.2 8.1 15.1 16 21.5 4.7 3.9 17.5 11.4 26 15.3 9.8 4.6 20 8.4 20 7.6 0-1.9-4.8-19.2-9.2-32.9-7.7-24.6-15.6-43.9-21.9-54.1l-1.9-3.1 18.7-4.8c10.4-2.6 19.8-4.9 21-5.1 1.3-.2 8.5-2 16-3.9 7.6-1.8 16.1-3.9 18.8-4.5 2.8-.7 5.7-1.3 6.5-1.6 3.4-.8 10.6-2.6 12.5-3 1.1-.2 12.6-3.1 25.5-6.2l23.5-5.8 1.6 3.5c4 9 16.6 50.7 20 66.6 3.4 15.4 9.5 52 11.5 68.5.8 6.4 1.5 8.8 2.8 9.3 1.8.7 85.4.1 88.6-.6 1.4-.3 7-.8 12.5-1.1 5.5-.4 11.1-.8 12.5-1 1.4-.3 5.4-.7 9-1 3.6-.4 7.6-.8 9-1.1 1.4-.2 4.6-.6 7.2-.9 2.6-.3 7.6-1 11-1.5 3.5-.6 8.1-1.3 10.3-1.6 3.7-.6 32.8-6.2 36.8-7.1.9-.2 2.5-.6 3.5-.8 12.8-3 35-8.9 39.3-10.5 10.8-4.1 18.8-10.8 20.4-17.2.4-1.8-.4-5.9-2.3-12-2.5-7.9-4.6-16.7-7.8-33.9-.3-1.4-1-4.3-1.6-6.5-.5-2.2-1.2-4.7-1.3-5.7-.2-.9-2.9-11-6-22.4-9-32.9-18.3-58.5-24.1-66.1-4.1-5.4-22.4-20.1-40.4-32.5-34.2-23.5-65.4-38.7-87.5-42.8-5-.9-21.1-1.9-21.8-1.4z"/><path d="M208.3 279.7c-3.3.6-6.5 5.2-6 8.6.3 2.4-.6 3.7-6.6 9.2-6.2 5.8-7.2 6.4-10.2 5.9-4.2-.6-9.5 3.4-9.5 7.5 0 3.3 2.5 6.9 5.5 8.1 1.8.7 2.6 2.5 4.4 9.5l2.1 8.6-2 2.6c-2.6 3.4-2.5 6.6.3 9.9 2.8 3.2 7 3.7 11 1.4 2.6-1.6 3.2-1.6 11.3.6 4.7 1.2 8.6 2.4 8.7 2.6 3.7 7.3 7.8 9.3 13.3 6.3 2.4-1.3 3.5-2.7 4-5.1.3-1.8.3-3.7 0-4.2-.3-.6 2.5-3.9 6.3-7.3 6.3-5.8 7.3-6.3 10.8-6.1 8 .6 12.6-9 6.7-13.7-1.5-1.2-3.2-2.1-3.8-2.1-.6 0-2.1-4.1-3.4-9l-2.2-9.1 2-2.1c4.5-4.8.8-12.8-5.9-12.8-2 0-4.6.7-5.8 1.5-2 1.4-3 1.3-10.9-.7-7.8-2.1-8.8-2.6-10.2-5.5-.9-1.9-2.7-3.6-4.5-4.3-1.7-.5-3-.9-3.1-.9-.1.1-1.1.4-2.3.6zm20.2 15.4c6.2 1.8 7.6 2.6 8.5 4.9.7 1.6 2.5 3.4 4.1 4 1.9.8 3.1 2.2 3.5 3.9.3 1.4.7 3.5 1 4.6.9 3.7 1.5 7.5 1.2 7.5-.2 0-6.4-6.1-13.8-13.5S219.9 293 220.4 293c.4 0 4.1 1 8.1 2.1zm1.1 15.3c13.6 13.5 15.4 15.7 14.5 17.4-.6 1.1-2.7 2.3-4.8 2.7-2.1.5-4.2.9-4.8 1.1-.5.1-4.8 1.2-9.5 2.4-4.7 1.1-9.2 2.3-10 2.5-18 4.5-18.7 4.4-15.8-4.2 1-3.1 3.9-12.5 6.5-20.8 4.3-13.9 5.5-16.4 7.6-16.5.5 0 7.8 6.9 16.3 15.4zm-26-9.7c-.8 2.1-3.6 10.5-6.2 18.8l-4.7 15-1.8-7.8c-1.9-7.8-1.9-7.8.2-10.6 1.3-1.7 1.9-3.9 1.7-5.7-.2-2.4.6-3.7 5.4-8.1 3.2-2.9 6-5.3 6.3-5.3.3 0-.2 1.7-.9 3.7zm33.9 39.7c-5.1 4.6-6.6 5.5-9.7 5.4-2.1 0-4.9.7-6.2 1.5-1.3.9-3.2 1.4-4.3 1.2-4.2-1-12.5-3.4-12.9-3.8-.3-.2 4.9-1.6 11.3-3.2 6.5-1.5 15-3.5 18.8-4.5 3.9-1 7.5-1.9 8-1.9.6-.1-1.7 2.4-5 5.3z"/></svg>