<svg width="138" height="96" viewBox="0 0 138 96" version="1.1" xmlns="http://www.w3.org/2000/svg" xmlns:xlink="http://www.w3.org/1999/xlink">
<title>GrAMPS-logo</title>
<desc>Created using Figma</desc>
<g id="Canvas" transform="matrix(2 0 0 2 -2 -2)">
<g id="GrAMPS-logo">
<g id="Hat">
<use xlink:href="#path0_fill" transform="translate(1 1)" fill="#220218"/>
</g>
<g id="Card">
<use xlink:href="#path1_fill" transform="translate(12.3255 13.3937)" fill="#E10098"/>
</g>
<g id="Hat Band">
<use xlink:href="#path2_fill" transform="translate(7.40722 21.2341)" fill="#FFFFFF"/>
</g>
<g id="GraphQL Logo">
<use xlink:href="#path3_fill" transform="translate(17.2875 17.4202)" fill="#FFFFFF"/>
</g>
</g>
</g>
<defs>
<path id="path0_fill" fill-rule="evenodd" d="M 9.00867 17.636C 7.19495 17.7831 3.09693 18.7145 1.21459 21.2635C -1.13834 24.4497 -0.305008 29.6458 5.77339 35.0379C 11.8518 40.43 28.7187 47.3748 42.2417 47.952C 55.7648 48.5292 63.8456 43.7467 66.2369 41.6853C 68.6281 39.6238 69.2053 35.8308 67.9685 33.522C 66.9134 31.5526 62.642 28.1706 60.5702 26.5302C 60.2131 26.2475 59.9214 26.0165 59.7227 25.8534C 59.1017 25.3436 58.6468 25.1069 57.6897 24.609C 57.5186 24.52 57.3315 24.4227 57.1244 24.3139C 57.6082 27.0679 58.2455 30.7446 58.3712 31.6556L 58.3735 31.6728C 58.5688 33.0874 58.7441 34.3582 54.0084 35.9693C 49.2536 37.5869 33.3713 39.1065 21.2145 37.6849C 9.05768 36.2634 6.50868 31.1164 6.41064 29.8419C 6.33221 28.8222 7.61978 23.0118 8.27338 20.2341C 8.27338 20.9694 8.61651 22.734 13.0773 24.7438C 17.538 26.7536 26.0184 27.8321 34.7928 27.783C 43.5673 27.734 50.9202 25.9693 54.0084 25.087C 56.0039 24.5168 56.6627 23.5459 56.7906 22.8922C 56.6995 22.5862 56.6071 22.3328 56.5164 22.0842C 56.3328 21.5807 56.1563 21.0966 56.0121 20.2341C 55.3525 16.2884 53.2086 9.03212 52.2191 7.87771C 51.2296 6.72331 43.8084 0.951285 38.9434 0.12671C 35.0514 -0.53295 25.5025 1.53624 21.2145 2.80059C 21.4611 2.80059 21.745 2.79975 22.0581 2.79883C 24.4431 2.79179 28.5208 2.77975 30.6801 3.09518C 33.4355 3.49771 38.8653 5.53558 42.6872 6.97C 44.5278 7.6608 45.9955 8.21164 46.612 8.37246C 43.4928 8.04863 40.5604 7.06556 37.7333 6.11774C 34.9551 5.18636 32.2784 4.28901 29.6257 4.08467C 25.2491 3.74753 18.9887 3.58992 16.515 4.08467C 16.2214 4.14339 15.9405 4.19399 15.6719 4.24237C 13.6775 4.60166 12.3571 4.83951 11.4851 7.38297C 10.6935 9.69178 9.50431 15.1804 9.00867 17.636Z"/>
<path id="path1_fill" d="M 16.7912 6.37288C 17.3496 8.32743 17.9835 12.901 18.3907 15.7514L 3.73158 15.7514C 3.78975 15.2278 3.69668 13.4827 2.85901 10.6905C 2.02135 7.89827 0.93074 4.82366 0 3.60206L 14.7407 0C 15.2643 0.814397 16.2327 4.41833 16.7912 6.37288Z"/>
<path id="path2_fill" d="M 0.00342624 9.60779C -0.0750042 8.58819 1.21257 2.77776 1.86616 0C 1.86616 0.73529 2.2093 2.49999 6.67006 4.50978C 11.1308 6.51957 19.6112 7.598 28.3856 7.54898C 37.1601 7.49996 44.513 5.73526 47.6012 4.85292C 50.0718 4.14704 50.4934 2.82678 50.3953 2.25489C 50.8528 4.83658 51.8071 10.2843 51.964 11.4215L 51.9663 11.4387C 52.1615 12.8534 52.3369 14.1241 47.6012 15.7352C 42.8463 17.3528 26.9641 18.8724 14.8073 17.4509C 2.65047 16.0293 0.101464 10.8823 0.00342624 9.60779Z"/>
<path id="path3_fill" fill-rule="evenodd" d="M 3.3845 0.0263981C 2.91065 0.141468 2.60936 0.602169 2.72134 1.06329C 2.73518 1.11949 2.75576 1.17584 2.78068 1.22778L 1.31693 2.56724C 1.26284 2.53974 1.20359 2.51641 1.14395 2.49991L 1.14358 2.49982C 0.67809 2.3746 0.181527 2.63483 0.038766 3.08878C -0.104724 3.54502 0.162833 4.01825 0.631486 4.14432C 0.690061 4.15991 0.752061 4.16976 0.812331 4.17372L 1.26199 6.02535C 1.21102 6.05624 1.16117 6.09301 1.11685 6.13321L 1.11656 6.13347C 0.759021 6.46232 0.737311 7.00323 1.07426 7.34304C 1.40936 7.68098 1.96764 7.6849 2.32599 7.35984L 2.32643 7.35943C 2.37127 7.31797 2.41274 7.27076 2.44788 7.22221L 4.36212 7.74094C 4.36386 7.79814 4.37141 7.85724 4.3848 7.91314C 4.49678 8.37426 4.97582 8.64546 5.44967 8.53039C 5.92367 8.41528 6.22425 7.95234 6.11282 7.4935C 6.09692 7.42905 6.07227 7.36483 6.04206 7.30646L 7.49283 5.97886C 7.55322 6.01162 7.62035 6.039 7.68835 6.05752C 8.15378 6.18272 8.65027 5.92257 8.7931 5.46874C 8.93913 5.01143 8.67141 4.54064 8.2006 4.41305L 8.20044 4.41301C 8.14264 4.39762 8.08146 4.38783 8.02196 4.38376L 7.5723 2.53212C 7.62405 2.50095 7.67464 2.46377 7.71955 2.42304L 7.71983 2.42279C 8.07738 2.09392 8.09908 1.55302 7.76214 1.21321L 7.76186 1.21293C 7.42481 0.876133 6.86667 0.871609 6.51025 1.19656L 6.50997 1.19682C 6.46423 1.23912 6.42202 1.28738 6.3864 1.33701L 4.4721 0.818264C 4.4705 0.760285 4.46294 0.700339 4.44936 0.643654C 4.33738 0.182534 3.85835 -0.0886723 3.3845 0.0263981ZM 1.7363 3.55536C 1.80169 3.34744 1.78176 3.1354 1.69551 2.95436L 3.01503 1.74689L 1.75812 5.71659L 1.35115 4.04076C 1.52904 3.93281 1.67044 3.76477 1.7363 3.55536ZM 7.43917 4.33564L 4.50484 1.38783L 6.2283 1.85486C 6.23498 2.05487 6.31452 2.25194 6.46767 2.40639C 6.62222 2.56225 6.82493 2.64673 7.03251 2.66107L 7.43917 4.33564ZM 2.27774 6.18292L 2.30898 6.09586C 2.32973 6.11295 2.34969 6.13094 2.36845 6.14958L 2.36874 6.14986C 2.40984 6.19156 2.44744 6.23891 2.47886 6.2874L 7.06088 5.17469C 7.06655 5.11717 7.07824 5.05785 7.09563 5.00197C 7.1132 4.94668 7.13742 4.8915 7.16565 4.84075L 3.95941 1.61978C 3.94241 1.62761 3.92497 1.63504 3.90722 1.642C 3.86788 1.65742 3.82704 1.67052 3.7862 1.68055C 3.7271 1.69475 3.66502 1.70323 3.60511 1.70596L 2.23298 6.03955C 2.25893 6.05678 2.28445 6.07566 2.30888 6.09577L 2.27764 6.18283C 2.27767 6.18286 2.27771 6.18289 2.27774 6.18292ZM 2.30888 6.09577L 3.90722 1.642L 2.30898 6.09586C 2.30895 6.09583 2.30892 6.0958 2.30888 6.09577ZM 4.52449 7.22425L 2.80968 6.75957L 7.02586 5.7357L 5.69261 6.95574C 5.5042 6.8547 5.27588 6.82089 5.04796 6.87624C 4.82798 6.92966 4.64578 7.05704 4.52449 7.22425Z"/>
</defs>
</svg>
